<mxfile host="app.diagrams.net" modified="2021-09-09T21:04:16.111Z" agent="5.0 (Windows NT 10.0; Win64; x64) AppleWebKit/537.36 (KHTML, like Gecko) Chrome/93.0.4577.63 Safari/537.36 Edg/93.0.961.38" etag="ECDf03u6nvEgJz8krDLK" version="15.1.0" type="github">
  <diagram id="0hbqpjibTdMkqRbZrVUQ" name="Page-1">
    <mxGraphModel dx="2076" dy="869" grid="1" gridSize="10" guides="1" tooltips="1" connect="1" arrows="1" fold="1" page="1" pageScale="1" pageWidth="850" pageHeight="1100" math="0" shadow="0">
      <root>
        <mxCell id="0" />
        <mxCell id="1" parent="0" />
        <mxCell id="yRz75lMZVXjt97QBjRPG-11" value="Flight" style="swimlane;fontStyle=1;align=center;verticalAlign=top;childLayout=stackLayout;horizontal=1;startSize=26;horizontalStack=0;resizeParent=1;resizeParentMax=0;resizeLast=0;collapsible=1;marginBottom=0;" parent="1" vertex="1">
          <mxGeometry x="20" y="240" width="260" height="230" as="geometry" />
        </mxCell>
        <mxCell id="yRz75lMZVXjt97QBjRPG-12" value="+ flightNumber: String&#xa;+ airlines:String&#xa;+ capacity:int&#xa;+ bookedNoOfSeats:int&#xa;&#xa;" style="text;strokeColor=none;fillColor=none;align=left;verticalAlign=top;spacingLeft=4;spacingRight=4;overflow=hidden;rotatable=0;points=[[0,0.5],[1,0.5]];portConstraint=eastwest;" parent="yRz75lMZVXjt97QBjRPG-11" vertex="1">
          <mxGeometry y="26" width="260" height="124" as="geometry" />
        </mxCell>
        <mxCell id="yRz75lMZVXjt97QBjRPG-13" value="" style="line;strokeWidth=1;fillColor=none;align=left;verticalAlign=middle;spacingTop=-1;spacingLeft=3;spacingRight=3;rotatable=0;labelPosition=right;points=[];portConstraint=eastwest;" parent="yRz75lMZVXjt97QBjRPG-11" vertex="1">
          <mxGeometry y="150" width="260" height="8" as="geometry" />
        </mxCell>
        <mxCell id="yRz75lMZVXjt97QBjRPG-14" value="+ getFlightDetail(): String&#xa;+ checkSeatAvailability(): boolean&#xa;+ updateBookedSeats() :void&#xa;" style="text;strokeColor=none;fillColor=none;align=left;verticalAlign=top;spacingLeft=4;spacingRight=4;overflow=hidden;rotatable=0;points=[[0,0.5],[1,0.5]];portConstraint=eastwest;" parent="yRz75lMZVXjt97QBjRPG-11" vertex="1">
          <mxGeometry y="158" width="260" height="72" as="geometry" />
        </mxCell>
        <mxCell id="yRz75lMZVXjt97QBjRPG-17" value="Address" style="swimlane;fontStyle=1;align=center;verticalAlign=top;childLayout=stackLayout;horizontal=1;startSize=26;horizontalStack=0;resizeParent=1;resizeParentMax=0;resizeLast=0;collapsible=1;marginBottom=0;" parent="1" vertex="1">
          <mxGeometry x="100" y="20" width="180" height="140" as="geometry" />
        </mxCell>
        <mxCell id="yRz75lMZVXjt97QBjRPG-18" value="- Street: String&#xa;- City: String&#xa;- State: String" style="text;strokeColor=none;fillColor=none;align=left;verticalAlign=top;spacingLeft=4;spacingRight=4;overflow=hidden;rotatable=0;points=[[0,0.5],[1,0.5]];portConstraint=eastwest;" parent="yRz75lMZVXjt97QBjRPG-17" vertex="1">
          <mxGeometry y="26" width="180" height="64" as="geometry" />
        </mxCell>
        <mxCell id="yRz75lMZVXjt97QBjRPG-19" value="" style="line;strokeWidth=1;fillColor=none;align=left;verticalAlign=middle;spacingTop=-1;spacingLeft=3;spacingRight=3;rotatable=0;labelPosition=right;points=[];portConstraint=eastwest;" parent="yRz75lMZVXjt97QBjRPG-17" vertex="1">
          <mxGeometry y="90" width="180" height="8" as="geometry" />
        </mxCell>
        <mxCell id="yRz75lMZVXjt97QBjRPG-20" value="+ getAddressDetails(): String&#xa;+ updateAddressDetails(addressDetail; String): void" style="text;strokeColor=none;fillColor=none;align=left;verticalAlign=top;spacingLeft=4;spacingRight=4;overflow=hidden;rotatable=0;points=[[0,0.5],[1,0.5]];portConstraint=eastwest;" parent="yRz75lMZVXjt97QBjRPG-17" vertex="1">
          <mxGeometry y="98" width="180" height="42" as="geometry" />
        </mxCell>
        <mxCell id="yRz75lMZVXjt97QBjRPG-21" value="Passenger" style="swimlane;fontStyle=1;align=center;verticalAlign=top;childLayout=stackLayout;horizontal=1;startSize=26;horizontalStack=0;resizeParent=1;resizeParentMax=0;resizeLast=0;collapsible=1;marginBottom=0;" parent="1" vertex="1">
          <mxGeometry x="385" y="20" width="170" height="140" as="geometry" />
        </mxCell>
        <mxCell id="yRz75lMZVXjt97QBjRPG-22" value="- id: int&#xa;- address: Address&#xa;- contact: Contact" style="text;strokeColor=none;fillColor=none;align=left;verticalAlign=top;spacingLeft=4;spacingRight=4;overflow=hidden;rotatable=0;points=[[0,0.5],[1,0.5]];portConstraint=eastwest;" parent="yRz75lMZVXjt97QBjRPG-21" vertex="1">
          <mxGeometry y="26" width="170" height="64" as="geometry" />
        </mxCell>
        <mxCell id="yRz75lMZVXjt97QBjRPG-23" value="" style="line;strokeWidth=1;fillColor=none;align=left;verticalAlign=middle;spacingTop=-1;spacingLeft=3;spacingRight=3;rotatable=0;labelPosition=right;points=[];portConstraint=eastwest;" parent="yRz75lMZVXjt97QBjRPG-21" vertex="1">
          <mxGeometry y="90" width="170" height="8" as="geometry" />
        </mxCell>
        <mxCell id="yRz75lMZVXjt97QBjRPG-24" value="+ getContact(): Contact&#xa;+ getAddress(): Address" style="text;strokeColor=none;fillColor=none;align=left;verticalAlign=top;spacingLeft=4;spacingRight=4;overflow=hidden;rotatable=0;points=[[0,0.5],[1,0.5]];portConstraint=eastwest;" parent="yRz75lMZVXjt97QBjRPG-21" vertex="1">
          <mxGeometry y="98" width="170" height="42" as="geometry" />
        </mxCell>
        <mxCell id="yRz75lMZVXjt97QBjRPG-25" value="Address" style="swimlane;fontStyle=1;align=center;verticalAlign=top;childLayout=stackLayout;horizontal=1;startSize=26;horizontalStack=0;resizeParent=1;resizeParentMax=0;resizeLast=0;collapsible=1;marginBottom=0;" parent="1" vertex="1">
          <mxGeometry x="640" width="200" height="140" as="geometry" />
        </mxCell>
        <mxCell id="yRz75lMZVXjt97QBjRPG-26" value="- name: String&#xa;- phone: String&#xa;- email: String" style="text;strokeColor=none;fillColor=none;align=left;verticalAlign=top;spacingLeft=4;spacingRight=4;overflow=hidden;rotatable=0;points=[[0,0.5],[1,0.5]];portConstraint=eastwest;" parent="yRz75lMZVXjt97QBjRPG-25" vertex="1">
          <mxGeometry y="26" width="200" height="64" as="geometry" />
        </mxCell>
        <mxCell id="yRz75lMZVXjt97QBjRPG-27" value="" style="line;strokeWidth=1;fillColor=none;align=left;verticalAlign=middle;spacingTop=-1;spacingLeft=3;spacingRight=3;rotatable=0;labelPosition=right;points=[];portConstraint=eastwest;" parent="yRz75lMZVXjt97QBjRPG-25" vertex="1">
          <mxGeometry y="90" width="200" height="8" as="geometry" />
        </mxCell>
        <mxCell id="yRz75lMZVXjt97QBjRPG-28" value="+ getContactDetails(): String&#xa;+ updateContactDetails(contactDetail; String): void" style="text;strokeColor=none;fillColor=none;align=left;verticalAlign=top;spacingLeft=4;spacingRight=4;overflow=hidden;rotatable=0;points=[[0,0.5],[1,0.5]];portConstraint=eastwest;" parent="yRz75lMZVXjt97QBjRPG-25" vertex="1">
          <mxGeometry y="98" width="200" height="42" as="geometry" />
        </mxCell>
        <mxCell id="yRz75lMZVXjt97QBjRPG-37" value="Tickets" style="swimlane;fontStyle=1;align=center;verticalAlign=top;childLayout=stackLayout;horizontal=1;startSize=26;horizontalStack=0;resizeParent=1;resizeParentMax=0;resizeLast=0;collapsible=1;marginBottom=0;" parent="1" vertex="1">
          <mxGeometry x="335" y="245" width="285" height="270" as="geometry" />
        </mxCell>
        <mxCell id="yRz75lMZVXjt97QBjRPG-38" value="+ pnr: int&#xa;+ from: Vendor&#xa;+ to: String&#xa;+ flight: Flight&#xa;+ departureTime: String&#xa;+ ArrivalTime: String&#xa;+ passenger:Passenger&#xa;+seatNo:String&#xa;+price:float&#xa;+cancelled:boolean&#xa;&#xa;" style="text;strokeColor=none;fillColor=none;align=left;verticalAlign=top;spacingLeft=4;spacingRight=4;overflow=hidden;rotatable=0;points=[[0,0.5],[1,0.5]];portConstraint=eastwest;" parent="yRz75lMZVXjt97QBjRPG-37" vertex="1">
          <mxGeometry y="26" width="285" height="164" as="geometry" />
        </mxCell>
        <mxCell id="yRz75lMZVXjt97QBjRPG-39" value="" style="line;strokeWidth=1;fillColor=none;align=left;verticalAlign=middle;spacingTop=-1;spacingLeft=3;spacingRight=3;rotatable=0;labelPosition=right;points=[];portConstraint=eastwest;" parent="yRz75lMZVXjt97QBjRPG-37" vertex="1">
          <mxGeometry y="190" width="285" height="8" as="geometry" />
        </mxCell>
        <mxCell id="yRz75lMZVXjt97QBjRPG-40" value="+ checkStatus(): void&#xa;+getPnr():String&#xa;+getFlightDuration():int&#xa;+cancel:boolean" style="text;strokeColor=none;fillColor=none;align=left;verticalAlign=top;spacingLeft=4;spacingRight=4;overflow=hidden;rotatable=0;points=[[0,0.5],[1,0.5]];portConstraint=eastwest;" parent="yRz75lMZVXjt97QBjRPG-37" vertex="1">
          <mxGeometry y="198" width="285" height="72" as="geometry" />
        </mxCell>
        <mxCell id="yRz75lMZVXjt97QBjRPG-44" value="Extends" style="endArrow=block;endSize=16;endFill=0;html=1;entryX=0.323;entryY=1.053;entryDx=0;entryDy=0;entryPerimeter=0;exitX=0.43;exitY=-0.002;exitDx=0;exitDy=0;exitPerimeter=0;" parent="1" source="gzZyOGxUmRAM1fGCVRoX-7" edge="1" target="yRz75lMZVXjt97QBjRPG-40">
          <mxGeometry width="160" relative="1" as="geometry">
            <mxPoint x="350" y="460" as="sourcePoint" />
            <mxPoint x="551" y="160" as="targetPoint" />
            <Array as="points" />
          </mxGeometry>
        </mxCell>
        <mxCell id="yRz75lMZVXjt97QBjRPG-59" value="1" style="text;html=1;align=center;verticalAlign=middle;resizable=0;points=[];autosize=1;strokeColor=none;" parent="1" vertex="1">
          <mxGeometry x="620" y="70" width="20" height="20" as="geometry" />
        </mxCell>
        <mxCell id="yRz75lMZVXjt97QBjRPG-60" value="1" style="text;html=1;align=center;verticalAlign=middle;resizable=0;points=[];autosize=1;strokeColor=none;" parent="1" vertex="1">
          <mxGeometry x="560" y="70" width="20" height="20" as="geometry" />
        </mxCell>
        <mxCell id="yRz75lMZVXjt97QBjRPG-65" value="1" style="text;html=1;align=center;verticalAlign=middle;resizable=0;points=[];autosize=1;strokeColor=none;" parent="1" vertex="1">
          <mxGeometry x="280" y="70" width="20" height="20" as="geometry" />
        </mxCell>
        <mxCell id="yRz75lMZVXjt97QBjRPG-67" value="" style="endArrow=diamondThin;endFill=0;endSize=24;html=1;entryX=0;entryY=0.5;entryDx=0;entryDy=0;" parent="1" target="yRz75lMZVXjt97QBjRPG-38" edge="1">
          <mxGeometry width="160" relative="1" as="geometry">
            <mxPoint x="284" y="353" as="sourcePoint" />
            <mxPoint x="425" y="414" as="targetPoint" />
          </mxGeometry>
        </mxCell>
        <mxCell id="yRz75lMZVXjt97QBjRPG-68" value="1" style="text;html=1;align=center;verticalAlign=middle;resizable=0;points=[];autosize=1;strokeColor=none;" parent="1" vertex="1">
          <mxGeometry x="467.5" y="160" width="20" height="20" as="geometry" />
        </mxCell>
        <mxCell id="yRz75lMZVXjt97QBjRPG-69" value="*" style="text;html=1;align=center;verticalAlign=middle;resizable=0;points=[];autosize=1;strokeColor=none;" parent="1" vertex="1">
          <mxGeometry x="467.5" y="220" width="20" height="20" as="geometry" />
        </mxCell>
        <mxCell id="yRz75lMZVXjt97QBjRPG-78" value="*" style="text;html=1;align=center;verticalAlign=middle;resizable=0;points=[];autosize=1;strokeColor=none;" parent="1" vertex="1">
          <mxGeometry x="390" y="290" width="20" height="20" as="geometry" />
        </mxCell>
        <mxCell id="gzZyOGxUmRAM1fGCVRoX-1" value="" style="endArrow=diamondThin;endFill=1;endSize=24;html=1;" edge="1" parent="1">
          <mxGeometry width="160" relative="1" as="geometry">
            <mxPoint x="279" y="100" as="sourcePoint" />
            <mxPoint x="380" y="100" as="targetPoint" />
          </mxGeometry>
        </mxCell>
        <mxCell id="gzZyOGxUmRAM1fGCVRoX-2" value="1" style="text;html=1;align=center;verticalAlign=middle;resizable=0;points=[];autosize=1;strokeColor=none;" vertex="1" parent="1">
          <mxGeometry x="360" y="70" width="20" height="20" as="geometry" />
        </mxCell>
        <mxCell id="gzZyOGxUmRAM1fGCVRoX-3" value="" style="endArrow=diamondThin;endFill=1;endSize=24;html=1;entryX=1.016;entryY=0.832;entryDx=0;entryDy=0;entryPerimeter=0;" edge="1" parent="1" target="yRz75lMZVXjt97QBjRPG-22">
          <mxGeometry width="160" relative="1" as="geometry">
            <mxPoint x="640" y="99" as="sourcePoint" />
            <mxPoint x="390" y="110" as="targetPoint" />
          </mxGeometry>
        </mxCell>
        <mxCell id="gzZyOGxUmRAM1fGCVRoX-6" value="Extends" style="endArrow=block;endSize=16;endFill=0;html=1;entryX=0.582;entryY=1;entryDx=0;entryDy=0;entryPerimeter=0;exitX=0.439;exitY=-0.016;exitDx=0;exitDy=0;exitPerimeter=0;" edge="1" parent="1" source="gzZyOGxUmRAM1fGCVRoX-11" target="yRz75lMZVXjt97QBjRPG-40">
          <mxGeometry width="160" relative="1" as="geometry">
            <mxPoint x="540" y="451.10498046875" as="sourcePoint" />
            <mxPoint x="470" y="400" as="targetPoint" />
            <Array as="points" />
          </mxGeometry>
        </mxCell>
        <mxCell id="gzZyOGxUmRAM1fGCVRoX-7" value="Regular Ticket" style="swimlane;fontStyle=1;align=center;verticalAlign=top;childLayout=stackLayout;horizontal=1;startSize=26;horizontalStack=0;resizeParent=1;resizeParentMax=0;resizeLast=0;collapsible=1;marginBottom=0;" vertex="1" parent="1">
          <mxGeometry x="215" y="620" width="240" height="200" as="geometry" />
        </mxCell>
        <mxCell id="gzZyOGxUmRAM1fGCVRoX-8" value="-specialServices:String[]" style="text;strokeColor=none;fillColor=none;align=left;verticalAlign=top;spacingLeft=4;spacingRight=4;overflow=hidden;rotatable=0;points=[[0,0.5],[1,0.5]];portConstraint=eastwest;" vertex="1" parent="gzZyOGxUmRAM1fGCVRoX-7">
          <mxGeometry y="26" width="240" height="124" as="geometry" />
        </mxCell>
        <mxCell id="gzZyOGxUmRAM1fGCVRoX-9" value="" style="line;strokeWidth=1;fillColor=none;align=left;verticalAlign=middle;spacingTop=-1;spacingLeft=3;spacingRight=3;rotatable=0;labelPosition=right;points=[];portConstraint=eastwest;" vertex="1" parent="gzZyOGxUmRAM1fGCVRoX-7">
          <mxGeometry y="150" width="240" height="8" as="geometry" />
        </mxCell>
        <mxCell id="gzZyOGxUmRAM1fGCVRoX-10" value="+getSpecialServices():String[]&#xa;+updateSpecialServices():String[]&#xa;&#xa;" style="text;strokeColor=none;fillColor=none;align=left;verticalAlign=top;spacingLeft=4;spacingRight=4;overflow=hidden;rotatable=0;points=[[0,0.5],[1,0.5]];portConstraint=eastwest;" vertex="1" parent="gzZyOGxUmRAM1fGCVRoX-7">
          <mxGeometry y="158" width="240" height="42" as="geometry" />
        </mxCell>
        <mxCell id="gzZyOGxUmRAM1fGCVRoX-11" value=" TouristTickets" style="swimlane;fontStyle=1;align=center;verticalAlign=top;childLayout=stackLayout;horizontal=1;startSize=26;horizontalStack=0;resizeParent=1;resizeParentMax=0;resizeLast=0;collapsible=1;marginBottom=0;" vertex="1" parent="1">
          <mxGeometry x="530" y="630" width="230" height="210" as="geometry" />
        </mxCell>
        <mxCell id="gzZyOGxUmRAM1fGCVRoX-12" value="+hotelAddress:String&#xa;+selectedTouristLocation:" style="text;strokeColor=none;fillColor=none;align=left;verticalAlign=top;spacingLeft=4;spacingRight=4;overflow=hidden;rotatable=0;points=[[0,0.5],[1,0.5]];portConstraint=eastwest;" vertex="1" parent="gzZyOGxUmRAM1fGCVRoX-11">
          <mxGeometry y="26" width="230" height="124" as="geometry" />
        </mxCell>
        <mxCell id="gzZyOGxUmRAM1fGCVRoX-13" value="" style="line;strokeWidth=1;fillColor=none;align=left;verticalAlign=middle;spacingTop=-1;spacingLeft=3;spacingRight=3;rotatable=0;labelPosition=right;points=[];portConstraint=eastwest;" vertex="1" parent="gzZyOGxUmRAM1fGCVRoX-11">
          <mxGeometry y="150" width="230" height="8" as="geometry" />
        </mxCell>
        <mxCell id="gzZyOGxUmRAM1fGCVRoX-14" value="+touristLocation():&#xa;+ addTouristLocationt(): void&#xa;+deleteTouristLocationt(): void&#xa;&#xa;" style="text;strokeColor=none;fillColor=none;align=left;verticalAlign=top;spacingLeft=4;spacingRight=4;overflow=hidden;rotatable=0;points=[[0,0.5],[1,0.5]];portConstraint=eastwest;" vertex="1" parent="gzZyOGxUmRAM1fGCVRoX-11">
          <mxGeometry y="158" width="230" height="52" as="geometry" />
        </mxCell>
        <mxCell id="gzZyOGxUmRAM1fGCVRoX-19" value="" style="endArrow=diamondThin;endFill=0;endSize=24;html=1;" edge="1" parent="1">
          <mxGeometry width="160" relative="1" as="geometry">
            <mxPoint x="460" y="162" as="sourcePoint" />
            <mxPoint x="460" y="242" as="targetPoint" />
          </mxGeometry>
        </mxCell>
        <mxCell id="gzZyOGxUmRAM1fGCVRoX-20" value="1" style="text;html=1;align=center;verticalAlign=middle;resizable=0;points=[];autosize=1;strokeColor=none;" vertex="1" parent="1">
          <mxGeometry x="280" y="320" width="20" height="20" as="geometry" />
        </mxCell>
        <mxCell id="gzZyOGxUmRAM1fGCVRoX-21" value="*" style="text;html=1;align=center;verticalAlign=middle;resizable=0;points=[];autosize=1;strokeColor=none;" vertex="1" parent="1">
          <mxGeometry x="365" y="290" width="20" height="20" as="geometry" />
        </mxCell>
        <mxCell id="gzZyOGxUmRAM1fGCVRoX-27" value="*" style="text;html=1;align=center;verticalAlign=middle;resizable=0;points=[];autosize=1;strokeColor=none;" vertex="1" parent="1">
          <mxGeometry x="315" y="320" width="20" height="20" as="geometry" />
        </mxCell>
      </root>
    </mxGraphModel>
  </diagram>
</mxfile>
